<svg width="32" height="20" viewBox="0 0 32 20" fill="none" xmlns="http://www.w3.org/2000/svg">
<path d="M28.8889 1.0142H20.7834V3.24646H28.9208L28.8889 1.0142ZM27.1782 16.3709C26.5633 16.7744 25.8372 16.979 25.0999 16.9567C24.6119 17.007 24.1186 16.9571 23.6509 16.81C23.1832 16.6629 22.7513 16.4218 22.3821 16.1017C21.7009 15.3345 21.3457 14.336 21.3909 13.3154H31.9744C32.0499 12.2524 31.9582 11.1842 31.7026 10.1491C31.4539 9.16462 31.02 8.23544 30.4236 7.41018C29.8215 6.61118 29.0456 5.95649 28.1534 5.49455C27.1591 5.01109 26.0636 4.76699 24.956 4.78213C23.9142 4.77543 22.8816 4.97457 21.9184 5.3679C21.0365 5.7356 20.2376 6.27383 19.5683 6.95106C18.9007 7.64151 18.3837 8.46064 18.0495 9.35747C17.6909 10.3257 17.5122 11.3501 17.522 12.3813C17.5048 13.4272 17.6781 14.4676 18.0336 15.4527C18.3364 16.3441 18.8146 17.1674 19.4404 17.8749C20.0894 18.5686 20.8869 19.1095 21.7746 19.4581C22.7643 19.8315 23.817 20.0142 24.8761 19.9963C26.3619 20.0422 27.829 19.657 29.0967 18.8881C30.3781 17.988 31.3002 16.6715 31.7026 15.1677H28.1694C27.9803 15.665 27.6322 16.0875 27.1782 16.3709ZM21.6946 9.84825C21.819 9.45354 22.0256 9.08902 22.3009 8.77817C22.5763 8.46732 22.9144 8.21704 23.2933 8.04345C23.7956 7.82076 24.3419 7.71256 24.8921 7.72681C25.2895 7.6932 25.6896 7.74512 26.0649 7.87902C26.4402 8.01292 26.7818 8.22564 27.0663 8.50256C27.6103 9.16062 27.9589 9.95535 28.0735 10.7982H21.4388C21.4647 10.4764 21.5236 10.1581 21.6147 9.84825H21.6946ZM13.2374 9.08833C14.0511 8.7528 14.7581 8.20581 15.2838 7.50517C15.7689 6.76194 16.0091 5.88794 15.9712 5.00377C16.0014 4.19778 15.8427 3.39581 15.5076 2.66069C15.2251 2.02413 14.7717 1.47653 14.1966 1.07753C13.5879 0.660939 12.8952 0.380066 12.1663 0.254282C11.3043 0.074741 10.4251 -0.0102067 9.54435 0.000975943H0V19.9172H9.75219C10.6421 19.917 11.5285 19.8052 12.3901 19.5847C13.2061 19.374 13.9794 19.0259 14.6762 18.5557C15.3518 18.0944 15.9012 17.4742 16.275 16.7508C16.6911 15.9433 16.8946 15.0448 16.8665 14.1386C16.8968 13.0157 16.5787 11.9107 15.9552 10.9723C15.2847 10.0286 14.2902 9.35892 13.1575 9.08833H13.2374ZM4.42845 3.40478H8.56914C8.9496 3.40294 9.32947 3.43473 9.70423 3.49977C10.0499 3.54873 10.3818 3.66727 10.6794 3.84806C10.9678 4.00957 11.2014 4.25194 11.3509 4.54466C11.5375 4.89514 11.6259 5.28876 11.6067 5.68453C11.6365 6.02529 11.5839 6.36817 11.4532 6.68478C11.3225 7.00139 11.1176 7.28262 10.8553 7.50517C10.2832 7.89468 9.59852 8.08918 8.90487 8.05928H4.42845V3.40478ZM12.1663 15.1835C12.0007 15.5053 11.7526 15.7783 11.4468 15.9751C11.1276 16.1717 10.7758 16.3111 10.4077 16.3867C9.99856 16.4779 9.57993 16.5204 9.16066 16.5134H4.3645V11.0515H9.16066C9.98371 11.0158 10.7965 11.2434 11.4788 11.7006C11.7871 11.9745 12.0258 12.3165 12.1758 12.6988C12.3258 13.0811 12.3828 13.493 12.3421 13.9012C12.3836 14.3363 12.3234 14.7751 12.1663 15.1835Z" fill="#0C3B6B"/>
</svg>
